<svg height="512pt" viewBox="0 -69 512 512" width="512pt" xmlns="http://www.w3.org/2000/svg"><path d="m344.367188 0h-252.3125v41.789062h252.3125c7.269531 0 13.1875 5.914063 13.1875 13.1875v8.683594c0 11.539063 9.351562 20.894532 20.890624 20.894532 11.539063 0 20.894532-9.355469 20.894532-20.894532v-8.683594c0-30.316406-24.660156-54.976562-54.972656-54.976562zm0 0" fill="#ccf5ff"/><path d="m152.195312 0h-152.195312v41.785156h152.195312c7.273438 0 13.1875 5.917969 13.1875 13.1875v8.6875c0 11.539063 9.355469 20.894532 20.894532 20.894532 11.539062 0 20.894531-9.355469 20.894531-20.894532v-8.6875c0-30.3125-24.664063-54.972656-54.976563-54.972656zm0 0" fill="#8edff5"/><path d="m266.03125 141.839844-31.34375-30.847656v-37.742188c0-8.285156-6.714844-15-15-15h-66.824219c-8.285156 0-15 6.714844-15 15v37.742188l-31.339843 30.847656c-18.730469 18.433594-29.46875 44.074218-29.46875 70.351562v100.0625c0 8.28125 6.714843 15 15 15h188.445312c8.285156 0 15-6.71875 15-15v-100.0625c0-26.277344-10.742188-51.917968-29.46875-70.351562zm0 0" fill="#d19754"/><path d="m266.03125 141.839844-31.34375-30.847656v-37.742188c0-8.285156-6.714844-15-15-15h-33.410156v269h94.222656c8.285156 0 15-6.714844 15-15v-100.058594c0-26.277344-10.742188-51.917968-29.46875-70.351562zm0 0" fill="#8f5b3f"/><path d="m458.203125 141.839844-31.34375-30.847656v-37.742188c0-8.285156-6.714844-15-15-15h-66.824219c-8.285156 0-15 6.714844-15 15v37.742188l-31.34375 30.847656c-18.726562 18.433594-29.46875 44.074218-29.46875 70.351562v100.0625c0 8.28125 6.71875 15 15 15h188.449219c8.28125 0 15-6.71875 15-15v-100.0625c0-26.277344-10.742187-51.917968-29.46875-70.351562zm0 0" fill="#d19754"/><path d="m458.203125 141.839844-31.34375-30.847656v-37.742188c0-8.285156-6.714844-15-15-15h-33.414063v269h94.226563c8.28125 0 15-6.714844 15-15v-100.058594c0-26.277344-10.742187-51.917968-29.46875-70.351562zm0 0" fill="#8f5b3f"/><path d="m497 226.210938h-482c-8.285156 0-15 6.71875-15 15v118.316406c0 8.285156 6.714844 15 15 15h482c8.285156 0 15-6.714844 15-15v-118.316406c0-8.28125-6.714844-15-15-15zm0 0" fill="#ffe48a"/><path d="m497 226.210938h-251.304688v148.316406h251.304688c8.285156 0 15-6.714844 15-15v-118.316406c0-8.28125-6.714844-15-15-15zm0 0" fill="#f0c346"/><path d="m435.722656 374.53125v-51.257812c0-8.285157-6.71875-15-15-15-8.285156 0-15 6.714843-15 15v51.257812zm0 0" fill="#946343"/><g fill="#d19754"><path d="m111.085938 285.371094h-38.445313c-8.285156 0-15 6.714844-15 15s6.714844 15 15 15h38.445313c8.28125 0 15-6.714844 15-15s-6.71875-15-15-15zm0 0"/><path d="m194.582031 285.371094h-38.445312c-8.285157 0-15 6.714844-15 15s6.714843 15 15 15h38.445312c8.28125 0 15-6.714844 15-15s-6.71875-15-15-15zm0 0"/><path d="m278.078125 285.371094h-38.445313c-8.285156 0-15 6.714844-15 15s6.714844 15 15 15h38.445313c8.28125 0 15-6.714844 15-15s-6.71875-15-15-15zm0 0"/></g><path d="m278.078125 285.371094h-32.382813v30h32.382813c8.28125 0 15-6.714844 15-15s-6.71875-15-15-15zm0 0" fill="#8f5b3f"/></svg>